<svg xmlns="http://www.w3.org/2000/svg" width="547.47" height="409" viewBox="0 0 547.47 409">
  <g id="illustration-features-tab-1" transform="translate(4)">
    <rect id="Rectángulo_40" data-name="Rectángulo 40" width="547" height="409" rx="8" transform="translate(-4)" fill="#e8eaf6"/>
    <g id="Grupo_25" data-name="Grupo 25">
      <path id="Trazado_18" data-name="Trazado 18" d="M-3.53.2h547v59h-547Z" fill="#242a45" fill-rule="evenodd"/>
      <g id="Grupo_24" data-name="Grupo 24" transform="translate(22.47 14.197)">
        <circle id="Elipse_12" data-name="Elipse 12" cx="16" cy="16" r="16" fill="#fff" opacity="0.245"/>
        <circle id="Elipse_13" data-name="Elipse 13" cx="16" cy="16" r="16" transform="translate(461)" fill="#fff" opacity="0.104"/>
        <g id="Grupo_23" data-name="Grupo 23" transform="translate(47 6)">
          <rect id="Rectángulo_41" data-name="Rectángulo 41" width="120" height="6" rx="3" fill="#fff" opacity="0.75"/>
          <rect id="Rectángulo_42" data-name="Rectángulo 42" width="64" height="6" rx="3" transform="translate(0 14)" fill="#fff" opacity="0.25"/>
        </g>
      </g>
    </g>
    <g id="Grupo_27" data-name="Grupo 27">
      <g id="Grupo_26" data-name="Grupo 26" transform="translate(57 93)">
        <rect id="Rectángulo_43" data-name="Rectángulo 43" width="261" height="316" rx="8" fill="#fff"/>
        <rect id="Rectángulo_44" data-name="Rectángulo 44" width="128" height="316" rx="8" transform="translate(295)" fill="#fff"/>
        <rect id="Rectángulo_45" data-name="Rectángulo 45" width="120" height="6" rx="3" transform="translate(78.47 38.197)" fill="#242a45" opacity="0.5"/>
      </g>
    </g>
    <g id="Grupo_28" data-name="Grupo 28" transform="translate(88.47 115.197)">
      <circle id="Elipse_14" data-name="Elipse 14" cx="16" cy="16" r="16" transform="translate(0 10)" fill="#f98e5d"/>
      <rect id="Rectángulo_46" data-name="Rectángulo 46" width="88" height="6" rx="3" transform="translate(284)" fill="#242a45" opacity="0.25"/>
      <rect id="Rectángulo_47" data-name="Rectángulo 47" width="88" height="6" rx="3" transform="translate(284 20)" fill="#242a45" opacity="0.25"/>
      <rect id="Rectángulo_48" data-name="Rectángulo 48" width="88" height="6" rx="3" transform="translate(284 40)" fill="#242a45" opacity="0.25"/>
      <rect id="Rectángulo_49" data-name="Rectángulo 49" width="88" height="6" rx="3" transform="translate(284 60)" fill="#242a45" opacity="0.25"/>
      <rect id="Rectángulo_50" data-name="Rectángulo 50" width="88" height="6" rx="3" transform="translate(284 94)" fill="#242a45" opacity="0.25"/>
      <rect id="Rectángulo_51" data-name="Rectángulo 51" width="88" height="6" rx="3" transform="translate(284 114)" fill="#242a45" opacity="0.25"/>
      <rect id="Rectángulo_52" data-name="Rectángulo 52" width="88" height="6" rx="3" transform="translate(284 134)" fill="#242a45" opacity="0.25"/>
      <rect id="Rectángulo_53" data-name="Rectángulo 53" width="64" height="6" rx="3" transform="translate(47 30)" fill="#242a45" opacity="0.25"/>
    </g>
    <g id="Grupo_29" data-name="Grupo 29" transform="translate(88.47 181.197)">
      <circle id="Elipse_15" data-name="Elipse 15" cx="16" cy="16" r="16" fill="#6ac6d6"/>
      <rect id="Rectángulo_54" data-name="Rectángulo 54" width="120" height="6" rx="3" transform="translate(47 6)" fill="#242a45" opacity="0.5"/>
      <rect id="Rectángulo_55" data-name="Rectángulo 55" width="64" height="6" rx="3" transform="translate(47 20)" fill="#242a45" opacity="0.25"/>
    </g>
    <g id="Grupo_30" data-name="Grupo 30" transform="translate(88.47 237.197)">
      <circle id="Elipse_16" data-name="Elipse 16" cx="16" cy="16" r="16" fill="#a47ed4"/>
      <rect id="Rectángulo_56" data-name="Rectángulo 56" width="120" height="6" rx="3" transform="translate(47 6)" fill="#242a45" opacity="0.5"/>
      <rect id="Rectángulo_57" data-name="Rectángulo 57" width="64" height="6" rx="3" transform="translate(47 20)" fill="#242a45" opacity="0.25"/>
    </g>
    <g id="Grupo_31" data-name="Grupo 31" transform="translate(88.47 293.197)">
      <circle id="Elipse_17" data-name="Elipse 17" cx="16" cy="16" r="16" fill="#ec7878"/>
      <rect id="Rectángulo_58" data-name="Rectángulo 58" width="120" height="6" rx="3" transform="translate(47 6)" fill="#242a45" opacity="0.5"/>
      <rect id="Rectángulo_59" data-name="Rectángulo 59" width="64" height="6" rx="3" transform="translate(47 20)" fill="#242a45" opacity="0.25"/>
    </g>
  </g>
</svg>
