<svg xmlns="http://www.w3.org/2000/svg" width="547.47" height="409" viewBox="0 0 547.47 409">
  <g id="illustration-features-tab-3" transform="translate(4)">
    <rect id="Rectángulo_84" data-name="Rectángulo 84" width="547" height="409" rx="8" transform="translate(-4)" fill="#e8eaf6"/>
    <g id="Grupo_48" data-name="Grupo 48" transform="translate(-3.53 0.197)">
      <path id="Trazado_21" data-name="Trazado 21" d="M-3.53.2h547v59h-547Z" transform="translate(3.53 -0.197)" fill="#242a45" fill-rule="evenodd"/>
      <g id="Grupo_47" data-name="Grupo 47" transform="translate(26 14)">
        <circle id="Elipse_28" data-name="Elipse 28" cx="16" cy="16" r="16" fill="#fff" opacity="0.245"/>
        <g id="Grupo_46" data-name="Grupo 46" transform="translate(47 6)">
          <rect id="Rectángulo_85" data-name="Rectángulo 85" width="120" height="6" rx="3" fill="#fff" opacity="0.75"/>
          <rect id="Rectángulo_86" data-name="Rectángulo 86" width="64" height="6" rx="3" transform="translate(0 14)" fill="#fff" opacity="0.25"/>
        </g>
      </g>
    </g>
    <rect id="Rectángulo_87" data-name="Rectángulo 87" width="237" height="34" rx="8" transform="translate(27 92.124)" fill="#fff"/>
    <rect id="Rectángulo_88" data-name="Rectángulo 88" width="237" height="34" rx="8" transform="translate(27 144.147)" fill="#fff"/>
    <rect id="Rectángulo_89" data-name="Rectángulo 89" width="237" height="34" rx="8" transform="translate(27 196.17)" fill="#fff"/>
    <rect id="Rectángulo_90" data-name="Rectángulo 90" width="237" height="34" rx="8" transform="translate(27 248.194)" fill="#fff"/>
    <rect id="Rectángulo_91" data-name="Rectángulo 91" width="237" height="34" rx="8" transform="translate(27 300.217)" fill="#fff"/>
    <g id="Grupo_50" data-name="Grupo 50" transform="translate(440 409) rotate(180)">
      <path id="Trazado_22" data-name="Trazado 22" d="M348.707,45.66a20.688,20.688,0,0,0-3.174-5.935C320.331,6.251,226.157-4.907,133.309,1.911,84.833,5.473,50.639,26.437,29.028,45.661a175.951,175.951,0,0,0-13.36,13.222,61.042,61.042,0,0,0-10.91,16.9,57.533,57.533,0,0,0,5.123,55.161c9.577,14.276,22.722,24.824,29.513,36.543,12.932,22.318-55.437,78.736-10.946,114.38,15.7,12.584,49.16,15.488,85.662,13.536,44.428-2.378,93.365-11.955,120.284-20.045,55.712-16.737,90.58-40.98,98.539-68.256s-13.311-39.618-31.88-65.654c-17.495-24.526,58.553-63,47.654-95.783" transform="translate(0 1)" fill="#3a499e" fill-rule="evenodd"/>
      <path id="Trazado_23" data-name="Trazado 23" d="M19.549,19.128,2.564,22,0,6.2,21,0Z" transform="translate(235 187)" fill="#306299" fill-rule="evenodd"/>
      <path id="Trazado_24" data-name="Trazado 24" d="M27,11.882A84.106,84.106,0,0,0,0,18L6.5,5.746,25.249,0Z" transform="translate(210 196)" fill="#fa9e89" fill-rule="evenodd"/>
      <g id="Grupo_49" data-name="Grupo 49" transform="translate(2.001 75.108)">
        <path id="Trazado_25" data-name="Trazado 25" d="M157.065,167.706C148.953,127.547,11.059,66.016,4.429,0A61.028,61.028,0,0,0,9.2,55.078c8.914,14.255,21.15,24.787,27.471,36.489,12.039,22.282-51.605,78.618-10.19,114.208C41.1,218.34,72.241,221.24,106.22,219.29c10.344-2.364,58.164-15.331,50.845-51.584" fill="#fff" fill-rule="evenodd" opacity="0.152"/>
      </g>
      <path id="Trazado_26" data-name="Trazado 26" d="M330.82,54a21.942,21.942,0,0,0-3.64-15.227C304.751,6.1,182.686-4.79,100.05,1.865,56.9,5.341,21.545,27.58,0,52.085Z" transform="translate(21)" fill-rule="evenodd" opacity="0.149"/>
      <path id="Trazado_27" data-name="Trazado 27" d="M41.627,39.188s-10.077-.61-9.922-3.66,6.511-9.758,6.511-9.758l-9.509,3.4L0,30.268,3.1,27.6s23.127-1.067,24.16-1.88S41.524,14.943,43.8,14.537s146.688-.225,146.688-.225,14.858-.589,17.339,3.986,11.472,4.27,13.953.3S223.913,0,223.913,0s6.793,1.773,7.166,1.931C254.644,11.894,281,43,281,43Z" transform="translate(32 11)" fill-rule="evenodd" opacity="0.128"/>
      <path id="Trazado_28" data-name="Trazado 28" d="M27,50.3,41.45,1.142S43.506-1.3,45,.962L35.286,51ZM7.134,52,0,18.862,3.4,15,13,51.046Z" transform="translate(16 39.001)" fill="#162f44" fill-rule="evenodd"/>
      <path id="Trazado_29" data-name="Trazado 29" d="M17.493,40.918l6.025-34.2,1-5.669L22.325.727,22.169.7,17.381,0S1.41,39.344.051,48.787,25.2,96,25.2,96l28.768-2.448c.761-8.219-10.744-23.711-21.027-35.77-8.1-9.5-15.444-16.864-15.444-16.864" transform="translate(218.001 39)" fill="#f4f2f9" fill-rule="evenodd"/>
      <path id="Trazado_30" data-name="Trazado 30" d="M6.88,40.465,13.757.7,11.611.377,11.538,0l-.08.352C10.583,4.182.318,38.089.006,45c-.333,7.326,14.027,30,14.027,30L22,57.286c-7.93-9.474-15.12-16.82-15.12-16.82" transform="translate(229.001 41)" fill="#e0dfea" fill-rule="evenodd"/>
      <path id="Trazado_31" data-name="Trazado 31" d="M30,0,1.333,2.387,0,50.114S7,75,14.667,75a13.205,13.205,0,0,0,11.7-6.195c1.853-3,2.9-7.22,2.633-12.9C28.39,43.132,29.73,7,29.967.887,29.987.31,30,0,30,0" transform="translate(244 131)" fill="#6397d9" fill-rule="evenodd"/>
      <path id="Trazado_32" data-name="Trazado 32" d="M6.115.724l.538,56.818L0,71.062,7.763,72l2.729-3.21c1.79-3,2.8-7.22,2.542-12.894C12.445,43.122,13.771,6.114,14,0Z" transform="translate(260 134)" fill="#8bbff7" fill-rule="evenodd"/>
      <path id="Trazado_33" data-name="Trazado 33" d="M22,40,.983,0,.437,17.991,0,32.589,17.524,40Z" transform="translate(244 150)" fill="#306299" fill-rule="evenodd"/>
      <path id="Trazado_34" data-name="Trazado 34" d="M137.33,0H8.671A8.7,8.7,0,0,0,0,8.73V229.27A8.7,8.7,0,0,0,8.671,238h128.66A8.7,8.7,0,0,0,146,229.27V8.73A8.7,8.7,0,0,0,137.331,0" transform="translate(74.999 27)" fill="#fff" fill-rule="evenodd"/>
      <path id="Trazado_35" data-name="Trazado 35" d="M130,91.71V3.29A3.271,3.271,0,0,0,126.747,0H3.253A3.271,3.271,0,0,0,0,3.29V91.71A3.271,3.271,0,0,0,3.253,95H126.747A3.271,3.271,0,0,0,130,91.71" transform="translate(83 142)" fill="#e4dcf1" fill-rule="evenodd"/>
      <path id="Trazado_36" data-name="Trazado 36" d="M4.853,18,3.3,16.817,0,2.446.071.079,5.3,0a1.971,1.971,0,0,1,1.03.25c1.495.878,2.133,3.325,1.308,5.493A34.931,34.931,0,0,0,5.923,9.885C5.609,12.069,4.853,18,4.853,18" transform="translate(144 195)" fill="#8e2b43" fill-rule="evenodd"/>
      <path id="Trazado_37" data-name="Trazado 37" d="M58,0,3.776.208,1.981.214S-4.506,30.863,6,42.675a24.111,24.111,0,0,0,9.506,6.37C26.776,53.342,40.956,50.5,44,41.079,48.012,28.628,58,0,58,0" transform="translate(118 139)" fill="#4ec9b4" fill-rule="evenodd"/>
      <path id="Trazado_38" data-name="Trazado 38" d="M.84,7.511S3.055,1.485,7.943.217s10.489,3.224,10.03,8.457c0,0-4.684.687-5.447,2.96-.928,2.76-.306,2.854-.306,2.854a33.291,33.291,0,0,1,2.444,6.026c.611,2.537-.3,12.37-4.582,13.32-2.705.6-7.027-.317-10.082-4.757,0,0,1.528-8.563,3.666-12.686S6.874,10.365.84,7.511" transform="translate(133 180)" fill="#fa9e89" fill-rule="evenodd"/>
      <path id="Trazado_39" data-name="Trazado 39" d="M132.833,236.987,0,50.761V8.517A8.393,8.393,0,0,1,8.263,0H128.427A9.724,9.724,0,0,1,138,9.869v223.3c0,2.929-2.33,3.956-5.167,3.814" transform="translate(77 27)" fill="#f4f2f9" fill-rule="evenodd" opacity="0.184"/>
      <path id="Trazado_40" data-name="Trazado 40" d="M0,15.558,6.982,46,18,44.184,7.316,0Z" transform="translate(170 142)" fill="#4ec9b4" fill-rule="evenodd"/>
      <path id="Trazado_41" data-name="Trazado 41" d="M1.2.863l.6,3.106S0,5.153.3,6.928A28.633,28.633,0,0,1,0,12.845a1.051,1.051,0,0,0,1.575-.518C2.015,11.5,2.7,9.59,2.7,9.59S5,15.756,5.526,17.38c.225.691.452,1.767.975,1.6.275-.086.175-.715.128-1.33A34.126,34.126,0,0,0,5.7,12.869l.4-.234,1.663,5.276c.073.256.193.644.462.665.238.02.475-.11.475-.7A51.875,51.875,0,0,0,7.426,11.8l.319-.219L9.68,15.856a.368.368,0,0,0,.7-.044A1.974,1.974,0,0,0,10.2,14.62,37.434,37.434,0,0,1,9,10.774l.15-.173,1.05,2.17c.188.347.649.57.783.2C11.173,12.453,9.527,8,9.527,7.7S8.4,3.378,7.2,3.082,5.926,0,5.926,0L1.2.863Z" transform="translate(178 188)" fill="#fa9e89" fill-rule="evenodd"/>
      <path id="Trazado_42" data-name="Trazado 42" d="M24.65,0H2.351A2.373,2.373,0,0,0,0,2.394V5.606A2.373,2.373,0,0,0,2.351,8h22.3A2.373,2.373,0,0,0,27,5.606V2.394A2.373,2.373,0,0,0,24.649,0m32,0h-22.3A2.373,2.373,0,0,0,32,2.394V5.606A2.373,2.373,0,0,0,34.351,8h22.3A2.373,2.373,0,0,0,59,5.606V2.394A2.373,2.373,0,0,0,56.649,0m34,0h-22.3A2.373,2.373,0,0,0,66,2.394V5.606A2.373,2.373,0,0,0,68.351,8h22.3A2.373,2.373,0,0,0,93,5.606V2.394A2.373,2.373,0,0,0,90.648,0m32,0h-22.3A2.373,2.373,0,0,0,98,2.394V5.606A2.373,2.373,0,0,0,100.351,8h22.3A2.373,2.373,0,0,0,125,5.606V2.394A2.373,2.373,0,0,0,122.649,0" transform="translate(84.999 116)" fill="#ffdedd" fill-rule="evenodd"/>
      <path id="Trazado_43" data-name="Trazado 43" d="M120.453,45H2.547A2.482,2.482,0,0,0,0,47.41v3.18A2.482,2.482,0,0,0,2.547,53H120.453A2.482,2.482,0,0,0,123,50.59V47.41A2.482,2.482,0,0,0,120.453,45M2.547,29A2.482,2.482,0,0,0,0,31.41v3.18A2.482,2.482,0,0,0,2.547,37H120.453A2.482,2.482,0,0,0,123,34.59V31.41A2.482,2.482,0,0,0,120.453,29ZM120.453,13H2.547A2.482,2.482,0,0,0,0,15.41v3.18A2.482,2.482,0,0,0,2.547,21H120.453A2.482,2.482,0,0,0,123,18.59V15.41A2.482,2.482,0,0,0,120.453,13m0-13H2.547A2.482,2.482,0,0,0,0,2.41V5.59A2.482,2.482,0,0,0,2.547,8H120.453A2.482,2.482,0,0,0,123,5.59V2.41A2.482,2.482,0,0,0,120.453,0" transform="translate(85 52)" fill="#f4f2f9" fill-rule="evenodd"/>
      <path id="Trazado_44" data-name="Trazado 44" d="M3.778,26.679s6.3,8.848,18.19,3.725-1.017-13.5-1.017-13.5-.254,3.26-2.134,4.191l.153-2.9-6.656-1.165-1.067,2.794-.686-3.182L7.208,15.4S9.951,5.776,11.552,4.379c0,0,.686-2.25.457-2.716S1.645-1.364.349.964s1.372,5.588,2.21,7.761S1.035,22.436,3.779,26.679" transform="translate(127 190)" fill="#fc516b" fill-rule="evenodd"/>
      <path id="Trazado_45" data-name="Trazado 45" d="M19.648,0H2.352C1.053,0,0,1.343,0,3S1.053,6,2.352,6h17.3C20.947,6,22,4.657,22,3s-1.053-3-2.352-3" transform="translate(82 241)" fill="#e4dcf1" fill-rule="evenodd"/>
      <path id="Trazado_46" data-name="Trazado 46" d="M0,27S2.664,7.714,5.71,0H21.77s2.648,8.138-10.047,10.8C2.893,12.651,0,27,0,27m31.611,5s3.26-10,2.648-13S31,13.8,31,11.8s1.63-9.6,1.63-9.6L42,2s-1.556.266-5.093,3.05C31.509,9.3,36.143,18.675,35,24c-.6,2.794-3.386,8-3.386,8M42,16.228s.213-8.383,1.915-7.093.638,13.757,2.127,18.056S52,45.248,52,45.248L48.17,46Z" transform="translate(128 142)" fill="#44ad99" fill-rule="evenodd"/>
      <path id="Trazado_47" data-name="Trazado 47" d="M1.377,27.525a10.868,10.868,0,0,0,3.5-3.046c.636-.78,4.03-2.021,4.833-2.988C21.355,7.471,36.906-3.35,46.873.958,59.6,6.46,62,11.576,62,11.576L53.586,22.938S43.923,8.179,36.152,12.2,13.06,26.756,13.06,26.756l-.406,6.464s-.9.24-1.324-1a8.274,8.274,0,0,1-.45-2.3L4.831,36.945s-1.162.36-.808-.769a32.464,32.464,0,0,1,2.491-4.368s.22-.616-.243-.335c-.54.327-4.766,5.092-4.766,5.092s-.973.064-.576-.866c.307-.717,2.865-4.09,3.73-5.354.258-.376-.282-.235-.282-.235l-3.5,2.97c-.473.319-.963.213-.87-.368A5.226,5.226,0,0,1,1.6,30.773,9.891,9.891,0,0,0,4,27.821L.96,28.921s-.6-.528.417-1.4M73,64.51,69.15,36.19,56.5,34s.64.668,1.372,1.56a13.31,13.31,0,0,1,1.963,2.966,12.2,12.2,0,0,1,.856,4.066s-5.608-.633-6.477,2.6,1.143,18.284,1.143,18.284S57.864,72.93,73,64.51" transform="translate(194 169)" fill="#fa9e89" fill-rule="evenodd"/>
      <path id="Trazado_48" data-name="Trazado 48" d="M12.387,19.188s-6.236-4.71-12.219-.7c0,0,3.792.35,4.972,2.268,0,0-2.36-.61-5.14,3.314,0,0,4.887-.7,6.572.785s10.28,3.838,15.42.262,5.057-6.193,5.057-6.193,3.033-1.133,2.95-2.878S22.5,0,22.5,0L20.9,6.367s1.264-.378,2.022,2.587-2.528,1.687-2.865,1.076-2.528,4.187-2.528,4.187l.337,2.79s1.1,3.577-5.477,2.18" transform="translate(244 214)" fill="#261f27" fill-rule="evenodd"/>
      <path id="Trazado_49" data-name="Trazado 49" d="M24.214,73.616c-3.591-14.487,3.05-72.409,3.05-72.409L20.766,0C-5.394,60.015.59,109,.59,109L30,106.586s-.075,1.224-.106.934c-.338-3.008-2.408-20.689-5.68-33.9" transform="translate(244.001 27)" fill="#fff" fill-rule="evenodd"/>
      <path id="Trazado_50" data-name="Trazado 50" d="M11.73,33.924,4.177,28.065S1.2,28.424.629,27.049A9.641,9.641,0,0,1,0,24.119L7.9,24,21,29.2,18.94,35ZM41.55,16.66s-2.672-4.322-5.365-7.852c-.9-1.186-3.117-1.7-3.978-4.6A4.685,4.685,0,0,1,32.947,0a19.632,19.632,0,0,1,8.419,3.957C44.819,7.021,50,12.894,50,12.894L48.582,18l-7.031-1.34Z" transform="translate(224 9)" fill="#6397d9" fill-rule="evenodd"/>
      <path id="Trazado_51" data-name="Trazado 51" d="M58,7c0-3.866-12.984-7-29-7S0,3.134,0,7s12.984,7,29,7,29-3.134,29-7" transform="translate(8 91)" fill="#224a7d" fill-rule="evenodd"/>
      <path id="Trazado_52" data-name="Trazado 52" d="M58,7c0-3.866-12.984-7-29-7S0,3.134,0,7s12.984,7,29,7,29-3.134,29-7" transform="translate(8 92)" fill="#6397d9" fill-rule="evenodd"/>
      <path id="Trazado_53" data-name="Trazado 53" d="M37,11c0-1.657-5.373-3-12-3S13,9.343,13,11s5.373,3,12,3,12-1.343,12-3M0,8V4.014S.07,1.55,5,0L3.821,4.318S.358,5.813,0,8" transform="translate(8 92)" fill="#162f44" fill-rule="evenodd"/>
      <path id="Trazado_54" data-name="Trazado 54" d="M4.994,8V3.915S5.384,1.872,0,0L1.652,4.766S4.512,6.043,4.994,8" transform="translate(61 92)" fill="#8cc5f2" fill-rule="evenodd"/>
      <path id="Trazado_55" data-name="Trazado 55" d="M18,10.962l-1.968-7.69A4.676,4.676,0,0,0,11.379,0H7.146a5,5,0,0,0-3.9,1.772A4.02,4.02,0,0,0,2.554,3.05L.848,8.363,0,11Z" transform="translate(29 102)" fill="#fc516b" fill-rule="evenodd"/>
      <path id="Trazado_56" data-name="Trazado 56" d="M18,1c0-.552-4.03-1-9-1S0,.448,0,1,4.03,2,9,2s9-.448,9-1" transform="translate(29 113)" fill="#9b293f" fill-rule="evenodd"/>
      <path id="Trazado_57" data-name="Trazado 57" d="M3.594.343c.354-.137.688-.253,1-.343L2.484.324a4.41,4.41,0,0,0-.657,1.35L.211,7.282C.13,7.552,0,7.982,0,8a23.69,23.69,0,0,1,8-.818,43.94,43.94,0,0,0-6.168-.32.724.724,0,0,1-.764-.815C1.3,4.39,1.973.973,3.594.343" transform="translate(31 103)" fill="#f995a9" fill-rule="evenodd"/>
      <path id="Trazado_58" data-name="Trazado 58" d="M8,3.1,7.321.012,6.827,0S6.8,3.1,3.153,5,.026,14,.026,14l0-.009c.088-.183,1.488-3.1,2.549-3.29,1.094-.2,1.773-1.95,1.773-1.95S4.873,8,5.5,8.151s1.251-1.5,1.251-1.5L6.956,4.9,8,3.1Z" transform="translate(31 113)" fill="#51a595" fill-rule="evenodd"/>
      <path id="Trazado_59" data-name="Trazado 59" d="M.007.013S-.693,23.449,11.607,30c0,0,3.5-1.352-.6-6.967s-.8-9.67-2.6-11.127-4.4-2.391-4-4.263-.1-3.744-.9-3.952A4.335,4.335,0,0,1,.627,0L.007.013Z" transform="translate(34 110)" fill="#4ec9b4" fill-rule="evenodd"/>
      <path id="Trazado_60" data-name="Trazado 60" d="M8,1.2,7.96.012,7.422,0s-.03,3.1-3.994,5-3.4,9-3.4,9l0-.009.336-1.068c0-6.45,3.723-7.787,5.212-8.648A7.4,7.4,0,0,0,8,1.2" transform="translate(26 113)" fill="#41877a" fill-rule="evenodd"/>
      <path id="Trazado_61" data-name="Trazado 61" d="M1.815,3.895S12.367,3.723,13.309,5L14,3.1S5.64-1.455,0,.478Z" transform="translate(252 199)" fill="#306299" fill-rule="evenodd"/>
      <path id="Trazado_62" data-name="Trazado 62" d="M0,14.084,12.588,0s16.822,15.082,16.4,19.81-6.58,14.515-16.034,5.523C3.76,16.585,0,14.084,0,14.084" transform="translate(239 175)" fill="#8cc5f2" fill-rule="evenodd"/>
      <path id="Trazado_63" data-name="Trazado 63" d="M11.435.346,8.869,0S-3.157,42.47.8,73.847C1.988,83.281,6.143,107,6.143,107L14,106.263c-.318-3.023-2.357-19.855-5.426-33.137C5.207,58.564,11.434.346,11.434.346" transform="translate(260.001 27)" fill="#f4f2f9" fill-rule="evenodd"/>
      <path id="Trazado_64" data-name="Trazado 64" d="M2.747.442A16.93,16.93,0,0,0,0,0,14.477,14.477,0,0,1,1.832,3.158a14.645,14.645,0,0,1,.8,4.33S5.6,8.27,5.908,7.9s0-6.77-3.161-7.459" transform="translate(255 204)" fill="#e6846f" fill-rule="evenodd"/>
      <path id="Trazado_65" data-name="Trazado 65" d="M29,19C29,8.508,20.952,0,11.027,0A17.286,17.286,0,0,0,0,4V34a17.279,17.279,0,0,0,11.027,4C20.952,38,29,29.492,29,19" transform="translate(83 182)" fill="#cec3e2" fill-rule="evenodd"/>
      <path id="Trazado_66" data-name="Trazado 66" d="M27,18.5C27,8.284,19.507,0,10.266,0A15.677,15.677,0,0,0,0,3.89V33.11A15.683,15.683,0,0,0,10.266,37C19.507,37,27,28.716,27,18.5" transform="translate(85 182)" fill="#c3b8d8" fill-rule="evenodd"/>
      <path id="Trazado_67" data-name="Trazado 67" d="M18,41.9s-1.985,1.1-2.3,1.305-4.39-.9-9.826-6.516-.73-10.324-3.028-13.33S2.741,14.04,3.892,9.728s0-9.722,0-9.722L3.832,0,2.011.006S-4.573,28.874,6.086,40a24.657,24.657,0,0,0,9.647,6L18,41.9Z" transform="translate(120 142)" fill="#44ad99" fill-rule="evenodd"/>
    </g>
  </g>
</svg>
