<svg xmlns="http://www.w3.org/2000/svg" width="547" height="409" viewBox="0 0 547 409">
  <g id="illustration-features-tab-2" transform="translate(3.53)">
    <rect id="Rectángulo_60" data-name="Rectángulo 60" width="543" height="409" rx="8" fill="#e8eaf6"/>
    <g id="Grupo_34" data-name="Grupo 34" transform="translate(-3.53 0.197)">
      <path id="Trazado_19" data-name="Trazado 19" d="M-3.53.2h547v59h-547Z" transform="translate(3.53 -0.197)" fill="#242a45" fill-rule="evenodd"/>
      <g id="Grupo_33" data-name="Grupo 33" transform="translate(26 14)">
        <circle id="Elipse_18" data-name="Elipse 18" cx="16" cy="16" r="16" fill="#fff" opacity="0.245"/>
        <g id="Grupo_32" data-name="Grupo 32" transform="translate(47 6)">
          <rect id="Rectángulo_61" data-name="Rectángulo 61" width="120" height="6" rx="3" fill="#fff" opacity="0.75"/>
          <rect id="Rectángulo_62" data-name="Rectángulo 62" width="64" height="6" rx="3" transform="translate(0 14)" fill="#fff" opacity="0.25"/>
        </g>
      </g>
    </g>
    <g id="Grupo_39" data-name="Grupo 39" transform="translate(27 154)">
      <rect id="Rectángulo_63" data-name="Rectángulo 63" width="200" height="255" rx="8"/>
      <rect id="Rectángulo_64" data-name="Rectángulo 64" width="200" height="255" rx="8" fill="#fff"/>
      <g id="Grupo_38" data-name="Grupo 38" transform="translate(23 29)">
        <rect id="Rectángulo_65" data-name="Rectángulo 65" width="101.317" height="6" rx="3" transform="translate(45.683 6)" fill="#242a45" opacity="0.5"/>
        <circle id="Elipse_19" data-name="Elipse 19" cx="16" cy="16" r="16" fill="#5267df"/>
        <rect id="Rectángulo_66" data-name="Rectángulo 66" width="54.036" height="6" rx="3" transform="translate(45.683 20)" fill="#242a45" opacity="0.25"/>
        <g id="Grupo_35" data-name="Grupo 35" transform="translate(0 56)">
          <circle id="Elipse_20" data-name="Elipse 20" cx="16" cy="16" r="16" fill="#5267df"/>
          <rect id="Rectángulo_67" data-name="Rectángulo 67" width="101.317" height="6" rx="3" transform="translate(45.683 6)" fill="#242a45" opacity="0.5"/>
          <rect id="Rectángulo_68" data-name="Rectángulo 68" width="54.036" height="6" rx="3" transform="translate(45.683 20)" fill="#242a45" opacity="0.25"/>
        </g>
        <g id="Grupo_36" data-name="Grupo 36" transform="translate(0 112)">
          <circle id="Elipse_21" data-name="Elipse 21" cx="16" cy="16" r="16" fill="#5267df"/>
          <rect id="Rectángulo_69" data-name="Rectángulo 69" width="101.317" height="6" rx="3" transform="translate(45.683 6)" fill="#242a45" opacity="0.5"/>
          <rect id="Rectángulo_70" data-name="Rectángulo 70" width="54.036" height="6" rx="3" transform="translate(45.683 20)" fill="#242a45" opacity="0.25"/>
        </g>
        <g id="Grupo_37" data-name="Grupo 37" transform="translate(0 168)">
          <circle id="Elipse_22" data-name="Elipse 22" cx="16" cy="16" r="16" fill="#5267df"/>
          <rect id="Rectángulo_71" data-name="Rectángulo 71" width="101.317" height="6" rx="3" transform="translate(45.683 6)" fill="#242a45" opacity="0.5"/>
          <rect id="Rectángulo_72" data-name="Rectángulo 72" width="54.036" height="6" rx="3" transform="translate(45.683 20)" fill="#242a45" opacity="0.25"/>
        </g>
      </g>
    </g>
    <g id="Grupo_44" data-name="Grupo 44" transform="translate(251 154)">
      <rect id="Rectángulo_73" data-name="Rectángulo 73" width="200" height="255" rx="8"/>
      <rect id="Rectángulo_74" data-name="Rectángulo 74" width="200" height="255" rx="8" fill="#fff"/>
      <g id="Grupo_43" data-name="Grupo 43" transform="translate(23 29)">
        <rect id="Rectángulo_75" data-name="Rectángulo 75" width="101.317" height="6" rx="3" transform="translate(45.683 6)" fill="#242a45" opacity="0.5"/>
        <circle id="Elipse_23" data-name="Elipse 23" cx="16" cy="16" r="16" fill="#5267df"/>
        <rect id="Rectángulo_76" data-name="Rectángulo 76" width="54.036" height="6" rx="3" transform="translate(45.683 20)" fill="#242a45" opacity="0.25"/>
        <g id="Grupo_40" data-name="Grupo 40" transform="translate(0 56)">
          <circle id="Elipse_24" data-name="Elipse 24" cx="16" cy="16" r="16" fill="#fa5959"/>
          <rect id="Rectángulo_77" data-name="Rectángulo 77" width="101.317" height="6" rx="3" transform="translate(45.683 6)" fill="#242a45" opacity="0.5"/>
          <rect id="Rectángulo_78" data-name="Rectángulo 78" width="54.036" height="6" rx="3" transform="translate(45.683 20)" fill="#242a45" opacity="0.25"/>
        </g>
        <g id="Grupo_41" data-name="Grupo 41" transform="translate(0 112)">
          <circle id="Elipse_25" data-name="Elipse 25" cx="16" cy="16" r="16" fill="#5267df"/>
          <rect id="Rectángulo_79" data-name="Rectángulo 79" width="101.317" height="6" rx="3" transform="translate(45.683 6)" fill="#242a45" opacity="0.5"/>
          <rect id="Rectángulo_80" data-name="Rectángulo 80" width="54.036" height="6" rx="3" transform="translate(45.683 20)" fill="#242a45" opacity="0.25"/>
        </g>
        <g id="Grupo_42" data-name="Grupo 42" transform="translate(0 168)">
          <circle id="Elipse_26" data-name="Elipse 26" cx="16" cy="16" r="16" fill="#5267df"/>
          <rect id="Rectángulo_81" data-name="Rectángulo 81" width="101.317" height="6" rx="3" transform="translate(45.683 6)" fill="#242a45" opacity="0.5"/>
          <rect id="Rectángulo_82" data-name="Rectángulo 82" width="54.036" height="6" rx="3" transform="translate(45.683 20)" fill="#242a45" opacity="0.25"/>
        </g>
      </g>
    </g>
    <rect id="Rectángulo_83" data-name="Rectángulo 83" width="237" height="34" rx="8" transform="translate(27 88.788)" fill="#fff"/>
    <g id="Grupo_45" data-name="Grupo 45" transform="translate(305 109.127)">
      <circle id="Elipse_27" data-name="Elipse 27" cx="67" cy="67" r="67" fill="rgba(73,93,207,0.2)" stroke="#5267df" stroke-width="20"/>
      <path id="Trazado_20" data-name="Trazado 20" d="M114,115l49,49" fill="none" stroke="#5267df" stroke-linecap="round" stroke-linejoin="round" stroke-width="20" fill-rule="evenodd"/>
    </g>
  </g>
</svg>
